<svg xmlns="http://www.w3.org/2000/svg" viewBox="0 0 352.9 52.3"><path d="M54.5 26.8V9.4H66c15.6 0 13.5 17.3 0 17.3H54.5v.1zM271.3 0c-2.9 0-5.7.5-8.3 1.3-2.6.9-5 2.1-7.2 3.7s-4.1 3.5-5.7 5.7c-1.6 2.2-2.8 4.6-3.7 7.2s-1.3 5.4-1.3 8.3.5 5.7 1.3 8.3c.9 2.6 2.1 5 3.7 7.2s3.5 4.1 5.7 5.7 4.6 2.8 7.2 3.7c2.6.9 5.4 1.3 8.3 1.3 2.9 0 5.7-.5 8.3-1.3 2.6-.9 5-2.1 7.2-3.7s4.1-3.5 5.7-5.7c1.6-2.2 2.8-4.6 3.7-7.2s1.3-5.4 1.3-8.3-.5-5.7-1.3-8.3c-.9-2.6-2.1-5-3.7-7.2S289 6.6 286.8 5s-4.6-2.8-7.2-3.7C277 .5 274.2.1 271.3 0zm80.5.9H343v34.9L313.1.9h-6.7v50.7h8.9V17.5l29.6 34.1h7L351.8.9zm-80.5 42.8c-2.4 0-4.6-.5-6.6-1.4s-3.8-2.1-5.3-3.7-2.7-3.4-3.5-5.5-1.3-4.3-1.3-6.8c0-2.4.4-4.7 1.3-6.8.8-2.1 2-3.9 3.5-5.5s3.3-2.8 5.3-3.8c2-.9 4.2-1.4 6.6-1.4 2.4 0 4.6.5 6.6 1.4s3.8 2.2 5.3 3.8c1.5 1.6 2.7 3.4 3.5 5.5s1.3 4.3 1.3 6.8c0 2.4-.4 4.7-1.3 6.8-.8 2.1-2 3.9-3.5 5.5s-3.3 2.8-5.3 3.7c-1.9.9-4.2 1.4-6.6 1.4zM243.5 9.2V.9h-43.8v8.6h17.5v42.2h8.8V9.5h17.5v-.3zm-179 25.7l13.6 16.7h10.8l-14.6-18c2.4-.8 4.4-2 6.1-3.4 1.7-1.5 3.1-3.3 4-5.3.9-2.1 1.4-4.4 1.4-7s-.5-4.9-1.5-7S82 7 80.2 5.5C78.5 4 76.4 2.9 74 2.1S69 .9 66.2.9H45.5v50.7h8.9V34.9h10.1zm45.9-3.8l8.2-19.3 8.2 19.3h-16.4zm25 20.5h9.4L122.8.9h-8.4l-22 50.7h9.4l5.4-12.8H130l5.4 12.8zm35.8-20.5l16.9 20.5h11.1l-22.5-28.2L194.5 1h-11.3l-23 27.9V1h-8.9v50.7h8.9V31.2h10.3l.7-.1zm-161-4.3V9.5h25V1H1v50.7h9.2V34.9h25v-8.1h-25z"/></svg>